#!OML:ASF E:\Style4\Style4.ASF
:FULLY-SPECIFIED
:DEGREES
3256
root 0.0700682 17.5209 -1.89937 4.36021 -4.22347 5.53331
lowerback 12.1827 4.34491 -0.425509
upperback 4.43418 5.66479 -0.426232
thorax -2.15702 2.81309 -0.982561
lowerneck 3.01569 -11.7293 -8.06144
upperneck -1.14305 -15.8511 7.76034
head 0.478518 -7.98006 3.79038
rclavicle 3.85642e-014 -2.3059e-014
rhumerus 47.3163 -4.51385 -45.4749
rradius 60.6641
rwrist 9.69703
rhand -27.1024 22.1827
rfingers 7.12502
rthumb -0.519022 -7.79642
lclavicle 3.85642e-014 -2.3059e-014
lhumerus -35.0597 -51.1802 81.1314
lradius 117.089
lwrist 2.58685
lhand -21.0424 19.7944
lfingers 7.12502
lthumb 5.33342 49.7073
rfemur -27.6556 -0.67285 12.6728
rtibia 42.2805
rfoot -18.2651 -12.7412
rtoes -12.1865
lfemur -22.7651 1.49349 -24.5504
ltibia 36.7056
lfoot -18.4494 7.49258
ltoes -15.0397
3257
root 0.0997308 17.5022 -1.90949 4.35519 -4.31239 5.44327
lowerback 12.3095 4.38012 -0.335607
upperback 4.44752 5.72037 -0.40252
thorax -2.20477 2.84046 -1.02511
lowerneck 3.29406 -11.8431 -8.01123
upperneck -1.27557 -16.0136 7.80622
head 0.40112 -8.06662 3.81758
rclavicle -1.51076e-014 9.54166e-015
rhumerus 47.4434 -4.7947 -45.6677
rradius 59.7522
rwrist 9.91576
rhand -26.521 21.7096
rfingers 7.12502
rthumb 0.0425556 -8.27016
lclavicle -1.51076e-014 9.54166e-015
lhumerus -35.0907 -51.0991 81.239
lradius 116.917
lwrist 2.36568
lhand -21.1595 19.6618
lfingers 7.12502
lthumb 5.22033 49.5775
rfemur -27.887 -0.64793 12.6659
rtibia 42.5551
rfoot -18.4104 -12.6892
rtoes -12.0528
lfemur -23.0553 1.58896 -24.5755
ltibia 37.1635
lfoot -18.6027 7.51223
ltoes -14.8784
3258
root 0.129659 17.4845 -1.91873 4.38146 -4.35387 5.37967
lowerback 12.3355 4.34639 -0.296578
upperback 4.54771 5.68188 -0.330052
thorax -2.1185 2.82152 -0.963592
lowerneck 3.19415 -11.9276 -8.14039
upperneck -1.20025 -16.1277 7.84774
head 0.467882 -8.12213 3.83688
rclavicle 0 1.59028e-015
rhumerus 47.9302 -5.01164 -45.8249
rradius 58.7652
rwrist 10.0525
rhand -25.9729 21.2642
rfingers 7.12502
rthumb 0.571921 -8.71477
lclavicle 0 1.59028e-015
lhumerus -34.9132 -50.771 81.22
lradius 116.729
lwrist 2.05679
lhand -20.5422 19.2971
lfingers 7.12502
lthumb 5.81636 49.1973
rfemur -28.1489 -0.712784 12.6501
rtibia 42.8623
rfoot -18.3876 -12.7169
rtoes -12.5316
lfemur -23.3607 1.6355 -24.6215
ltibia 37.5808
lfoot -18.7421 7.51003
ltoes -14.7332
3259
root 0.158609 17.467 -1.92836 4.35572 -4.37365 5.43987
lowerback 12.4416 4.34759 -0.327393
upperback 4.61051 5.67741 -0.360931
thorax -2.11 2.81921 -0.983259
lowerneck 3.251 -12.0311 -8.08159
upperneck -1.19433 -16.2672 7.90067
head 0.471914 -8.1937 3.843
rclavicle 1.35174e-014 0
rhumerus 48.2199 -5.24333 -45.9986
rradius 57.8286
rwrist 10.1619
rhand -25.5552 20.6471
rfingers 7.12502
rthumb 0.975314 -9.33045
lclavicle 1.35174e-014 0
lhumerus -34.8191 -50.7306 81.1824
lradius 116.599
lwrist 1.93443
lhand -19.8504 18.9133
lfingers 7.12502
lthumb 6.48421 48.794
rfemur -28.3763 -0.797172 12.4923
rtibia 43.2113
rfoot -18.3944 -12.7115
rtoes -12.9472
lfemur -23.5984 1.6576 -24.7951
ltibia 37.948
lfoot -18.8928 7.47068
ltoes -14.5418
3260
root 0.186039 17.4494 -1.93778 4.32517 -4.44983 5.50554
lowerback 12.5202 4.38062 -0.425648
upperback 4.63377 5.70754 -0.379971
thorax -2.13521 2.83331 -0.958263
lowerneck 3.53692 -12.1047 -7.98276
upperneck -1.27855 -16.3754 7.94917
head 0.400356 -8.25355 3.86454
rclavicle 7.55382e-015 -3.18055e-015
rhumerus 48.5205 -5.40744 -46.1755
rradius 56.8347
rwrist 10.2353
rhand -25.0745 20.2373
rfingers 7.12502
rthumb 1.43964 -9.73755
lclavicle 7.55382e-015 -3.18055e-015
lhumerus -34.9282 -50.7956 81.3529
lradius 116.439
lwrist 1.9083
lhand -19.8496 18.714
lfingers 7.12502
lthumb 6.48501 48.5947
rfemur -28.6329 -0.823687 12.3202
rtibia 43.579
rfoot -18.4264 -12.6366
rtoes -13.0628
lfemur -23.8007 1.75251 -24.9756
ltibia 38.2631
lfoot -19.0129 7.41548
ltoes -14.2153
3261
root 0.215344 17.4349 -1.94578 4.30913 -4.53774 5.56768
lowerback 12.5895 4.38385 -0.551406
upperback 4.6215 5.69667 -0.345466
thorax -2.2012 2.82618 -0.858379
lowerneck 3.94049 -12.1409 -8.07507
upperneck -1.40923 -16.4474 8.01767
head 0.30909 -8.29689 3.93739
rclavicle 9.54166e-014 -7.15625e-015
rhumerus 48.9106 -5.42043 -46.2454
rradius 55.8139
rwrist 10.2055
rhand -24.5582 19.9563
rfingers 7.12502
rthumb 1.93827 -10.0146
lclavicle 9.54166e-014 -7.15625e-015
lhumerus -35.1457 -50.7017 81.6323
lradius 116.352
lwrist 1.57675
lhand -19.7481 19.0939
lfingers 7.12502
lthumb 6.58298 48.9716
rfemur -28.8791 -0.898636 12.1548
rtibia 43.9566
rfoot -18.4473 -12.4544
rtoes -13.0527
lfemur -23.9878 1.83472 -25.1601
ltibia 38.5518
lfoot -19.0918 7.39252
ltoes -14.1033
3262
root 0.243327 17.4242 -1.95141 4.27751 -4.56426 5.53325
lowerback 12.6536 4.37451 -0.549934
upperback 4.6698 5.68487 -0.297195
thorax -2.19028 2.81983 -0.810569
lowerneck 4.14563 -12.2001 -8.15005
upperneck -1.4916 -16.5392 8.10839
head 0.270242 -8.34723 3.99621
rclavicle -5.4467e-014 1.90833e-014
rhumerus 49.2197 -5.57559 -46.4486
rradius 54.8971
rwrist 10.401
rhand -24.1375 19.5746
rfingers 7.12502
rthumb 2.34455 -10.3923
lclavicle -5.4467e-014 1.90833e-014
lhumerus -35.177 -50.6234 81.7227
lradius 116.287
lwrist 1.15782
lhand -19.5023 19.2326
lfingers 7.12502
lthumb 6.82027 49.1027
rfemur -29.0256 -0.957855 12.0998
rtibia 44.3133
rfoot -18.5139 -12.2362
rtoes -12.4949
lfemur -24.1426 1.82341 -25.2286
ltibia 38.8628
lfoot -19.1693 7.44506
ltoes -14.0395
3263
root 0.269929 17.4104 -1.95984 4.28088 -4.57912 5.50519
lowerback 12.6806 4.37549 -0.533129
upperback 4.78518 5.68766 -0.292354
thorax -2.0831 2.82174 -0.811418
lowerneck 4.04462 -12.3042 -8.04195
upperneck -1.4964 -16.666 8.13184
head 0.289935 -8.40987 3.97317
rclavicle -3.4191e-014 1.59028e-015
rhumerus 49.3741 -5.86636 -46.6109
rradius 54.2263
rwrist 10.553
rhand -23.8646 19.1712
rfingers 7.12502
rthumb 2.60809 -10.7926
lclavicle -3.4191e-014 1.59028e-015
lhumerus -34.996 -50.6795 81.6262
lradius 116.142
lwrist 1.03197
lhand -19.7923 19.1562
lfingers 7.12502
lthumb 6.54031 49.0352
rfemur -29.228 -0.944643 12.0273
rtibia 44.65
rfoot -18.6557 -12.0531
rtoes -11.6659
lfemur -24.375 1.77613 -25.2923
ltibia 39.2076
lfoot -19.3205 7.44738
ltoes -13.6893
3264
root 0.296538 17.3935 -1.96979 4.2809 -4.66236 5.51628
lowerback 12.8158 4.38307 -0.547837
upperback 4.82584 5.69256 -0.322704
thorax -2.11164 2.8238 -0.844279
lowerneck 3.96799 -12.3831 -7.93972
upperneck -1.42746 -16.764 8.15521
head 0.327323 -8.45832 3.95088
rclavicle 4.77083e-015 1.19271e-014
rhumerus 49.4741 -6.01698 -46.6151
rradius 53.5641
rwrist 10.494
rhand -23.5627 18.6485
rfingers 7.12502
rthumb 2.89967 -11.3116
lclavicle 4.77083e-015 1.19271e-014
lhumerus -34.8794 -50.7649 81.5553
lradius 115.973
lwrist 1.17835
lhand -20.2721 19.1812
lfingers 7.12502
lthumb 6.07714 49.074
rfemur -29.4681 -0.889103 11.9048
rtibia 44.9357
rfoot -18.7376 -11.9407
rtoes -11.362
lfemur -24.6313 1.81886 -25.4164
ltibia 39.5693
lfoot -19.3463 7.58834
ltoes -14.3665
3265
root 0.321208 17.379 -1.97821 4.29998 -4.74014 5.55926
lowerback 12.8576 4.39665 -0.690274
upperback 4.88552 5.69375 -0.273344
thorax -2.09051 2.8227 -0.715526
lowerneck 3.97627 -12.4433 -8.05654
upperneck -1.4283 -16.85 8.26246
head 0.354366 -8.50256 4.00217
rclavicle 2.50469e-014 -5.56597e-015
rhumerus 49.845 -6.13041 -46.6516
rradius 52.7126
rwrist 10.5264
rhand -23.2562 18.1685
rfingers 7.12502
rthumb 3.19567 -11.7873
lclavicle 2.50469e-014 -5.56597e-015
lhumerus -34.682 -50.7083 81.5574
lradius 115.791
lwrist 1.07445
lhand -20.3528 18.9574
lfingers 7.12502
lthumb 5.99918 48.8525
rfemur -29.7096 -0.901928 11.773
rtibia 45.1856
rfoot -18.7655 -11.8601
rtoes -11.3339
lfemur -24.8958 1.88906 -25.5747
ltibia 39.9179
lfoot -19.4037 7.68837
ltoes -14.9196
3266
root 0.346718 17.3693 -1.98299 4.27294 -4.80548 5.55296
lowerback 12.8722 4.35436 -0.821965
upperback 5.05624 5.62477 -0.165653
thorax -1.94369 2.78651 -0.514523
lowerneck 3.64724 -12.4812 -8.20275
upperneck -1.32929 -16.8911 8.27765
head 0.462067 -8.51703 3.9975
rclavicle -4.92986e-014 1.66979e-014
rhumerus 50.426 -6.21846 -46.7319
rradius 51.9353
rwrist 10.5581
rhand -22.9313 17.9273
rfingers 7.12502
rthumb 3.50944 -12.0235
lclavicle -4.92986e-014 1.66979e-014
lhumerus -34.3122 -50.4137 81.4165
lradius 115.713
lwrist 0.741802
lhand -19.9177 18.9521
lfingers 7.12502
lthumb 6.41931 48.8348
rfemur -29.8369 -0.944877 11.6868
rtibia 45.3846
rfoot -18.8546 -11.6738
rtoes -11.1187
lfemur -25.0647 1.96833 -25.6728
ltibia 40.2357
lfoot -19.5599 7.65308
ltoes -14.5173
